<svg xmlns="http://www.w3.org/2000/svg" width="10.802" height="344.135" viewBox="0 0 10.802 344.135"><g transform="translate(-623.414 -248.272)"><rect width="7.716" height="12.346" transform="translate(623.414 248.272)" fill="#6c63ff"/><rect width="7.716" height="12.346" transform="translate(623.414 345.494)" fill="#6c63ff"/><rect width="10.802" height="1.543" transform="translate(623.414 544.568)" fill="#6c63ff"/><path d="M184.414,100.309v3.086H187.5v6.173h-3.086v3.086h7.716V100.309Z" transform="translate(439 185)" fill="#6c63ff"/><path d="M184.414,120.37v3.087H187.5v6.173h-3.086v3.086h7.716V120.37Z" transform="translate(439 185)" fill="#6c63ff"/><path d="M184.414,140.432v3.087H187.5v6.172h-3.086v3.087h7.716V140.432Z" transform="translate(439 185)" fill="#6c63ff"/><rect width="7.716" height="12.346" transform="translate(623.414 385.617)" fill="#6c63ff"/><path d="M184.414,180.556v3.086H187.5v6.173h-3.086V192.9h7.716V180.556Z" transform="translate(439 185)" fill="#6c63ff"/><rect width="7.716" height="12.346" transform="translate(623.414 425.741)" fill="#6c63ff"/><path d="M184.414,220.679v3.086H187.5v6.173h-3.086v3.087h7.716V220.679Z" transform="translate(439 185)" fill="#6c63ff"/><rect width="7.716" height="12.346" transform="translate(623.414 465.864)" fill="#6c63ff"/><path d="M184.414,260.8v3.087H187.5v6.173h-3.086v3.086h7.716V260.8Z" transform="translate(439 185)" fill="#6c63ff"/><rect width="7.716" height="12.346" transform="translate(623.414 505.988)" fill="#6c63ff"/><rect width="7.716" height="12.346" transform="translate(623.414 558.457)" fill="#6c63ff"/><path d="M184.414,300.926v3.086H187.5v6.173h-3.086v3.087h7.716V300.926Z" transform="translate(439 185)" fill="#6c63ff"/><path d="M184.414,395.062v3.086H187.5v6.173h-3.086v3.086h7.716V395.062Z" transform="translate(439 185)" fill="#6c63ff"/></g></svg>