<svg xmlns="http://www.w3.org/2000/svg" width="10.802" height="342.592" viewBox="0 0 10.802 342.592"><g transform="translate(-635.759 -248.272)"><rect width="7.716" height="12.346" transform="translate(637.302 248.272)" fill="#6c63ff"/><rect width="7.716" height="12.346" transform="translate(637.302 285.309)" fill="#6c63ff"/><rect width="7.716" height="12.346" transform="translate(637.302 325.432)" fill="#6c63ff"/><rect width="7.716" height="12.346" transform="translate(637.302 421.111)" fill="#6c63ff"/><rect width="10.802" height="1.543" transform="translate(635.759 311.543)" fill="#6c63ff"/><rect width="10.802" height="1.543" transform="translate(635.759 507.531)" fill="#6c63ff"/><path d="M198.3,81.79v3.087h3.087v6.172H198.3v3.087h7.717V81.79Z" transform="translate(439 185)" fill="#6c63ff"/><rect width="7.716" height="12.346" transform="translate(637.302 365.556)" fill="#6c63ff"/><rect width="7.716" height="12.346" transform="translate(637.302 402.593)" fill="#6c63ff"/><path d="M198.3,199.074v3.086h3.087v6.173H198.3v3.087h7.717V199.074Z" transform="translate(439 185)" fill="#6c63ff"/><rect width="7.716" height="12.346" transform="translate(637.302 462.778)" fill="#6c63ff"/><rect width="7.716" height="12.346" transform="translate(637.302 482.84)" fill="#6c63ff"/><rect width="7.716" height="12.346" transform="translate(637.302 521.42)" fill="#6c63ff"/><path d="M198.3,373.457v3.086h3.087v6.173H198.3V385.8h7.717V373.457Z" transform="translate(439 185)" fill="#6c63ff"/><path d="M198.3,393.519v3.086h3.087v6.173H198.3v3.086h7.717V393.519Z" transform="translate(439 185)" fill="#6c63ff"/></g></svg>