<svg xmlns="http://www.w3.org/2000/svg" width="10.802" height="344.135" viewBox="0 0 10.802 344.135"><g transform="translate(-708.29 -248.272)"><rect width="7.716" height="12.346" transform="translate(708.29 248.272)" fill="#6c63ff"/><rect width="7.716" height="12.346" transform="translate(708.29 345.494)" fill="#6c63ff"/><rect width="10.802" height="1.543" transform="translate(708.29 544.568)" fill="#6c63ff"/><path d="M269.29,100.309v3.086h3.087v6.173H269.29v3.086h7.716V100.309Z" transform="translate(439 185)" fill="#6c63ff"/><path d="M269.29,120.37v3.087h3.087v6.173H269.29v3.086h7.716V120.37Z" transform="translate(439 185)" fill="#6c63ff"/><path d="M269.29,140.432v3.087h3.087v6.172H269.29v3.087h7.716V140.432Z" transform="translate(439 185)" fill="#6c63ff"/><rect width="7.716" height="12.346" transform="translate(708.29 385.617)" fill="#6c63ff"/><path d="M269.29,180.556v3.086h3.087v6.173H269.29V192.9h7.716V180.556Z" transform="translate(439 185)" fill="#6c63ff"/><rect width="7.716" height="12.346" transform="translate(708.29 425.741)" fill="#6c63ff"/><path d="M269.29,220.679v3.086h3.087v6.173H269.29v3.087h7.716V220.679Z" transform="translate(439 185)" fill="#6c63ff"/><rect width="7.716" height="12.346" transform="translate(708.29 465.864)" fill="#6c63ff"/><path d="M269.29,260.8v3.087h3.087v6.173H269.29v3.086h7.716V260.8Z" transform="translate(439 185)" fill="#6c63ff"/><rect width="7.716" height="12.346" transform="translate(708.29 505.988)" fill="#6c63ff"/><rect width="7.716" height="12.346" transform="translate(708.29 558.457)" fill="#6c63ff"/><path d="M269.29,300.926v3.086h3.087v6.173H269.29v3.087h7.716V300.926Z" transform="translate(439 185)" fill="#6c63ff"/><path d="M269.29,395.062v3.086h3.087v6.173H269.29v3.086h7.716V395.062Z" transform="translate(439 185)" fill="#6c63ff"/></g></svg>