<svg xmlns="http://www.w3.org/2000/svg" width="7.716" height="191.358" viewBox="0 0 7.716 191.358"><g transform="translate(-652.735 -266.79)"><rect width="7.716" height="12.346" transform="translate(652.735 266.79)" fill="#6c63ff"/><rect width="7.716" height="12.346" transform="translate(652.735 286.852)" fill="#6c63ff"/><rect width="7.716" height="12.346" transform="translate(652.735 345.494)" fill="#6c63ff"/><path d="M213.735,120.37v3.087h3.086v6.173h-3.086v3.086h7.716V120.37Z" transform="translate(439 185)" fill="#6c63ff"/><path d="M213.735,180.556v3.086h3.086v6.173h-3.086V192.9h7.716V180.556Z" transform="translate(439 185)" fill="#6c63ff"/><path d="M213.735,200.617V203.7h3.086v6.173h-3.086v3.086h7.716V200.617Z" transform="translate(439 185)" fill="#6c63ff"/><path d="M213.735,138.889v3.086h3.086v6.173h-3.086v3.087h7.716V138.889Z" transform="translate(439 185)" fill="#6c63ff"/><path d="M213.735,260.8v3.087h3.086v6.173h-3.086v3.086h7.716V260.8Z" transform="translate(439 185)" fill="#6c63ff"/></g></svg>