<svg xmlns="http://www.w3.org/2000/svg" width="10.802" height="319.444" viewBox="0 0 10.802 319.444"><g transform="translate(-594.093 -251.358)"><rect width="7.716" height="12.346" transform="translate(597.179 251.358)" fill="#6c63ff"/><rect width="7.716" height="12.346" transform="translate(597.179 271.42)" fill="#6c63ff"/><rect width="7.716" height="12.346" transform="translate(597.179 464.321)" fill="#6c63ff"/><rect width="7.716" height="12.346" transform="translate(597.179 504.444)" fill="#6c63ff"/><rect width="7.716" height="12.346" transform="translate(597.179 524.506)" fill="#6c63ff"/><rect width="10.802" height="1.543" transform="translate(594.093 293.025)" fill="#6c63ff"/><rect width="10.802" height="1.543" transform="translate(594.093 391.79)" fill="#6c63ff"/><rect width="10.802" height="1.543" transform="translate(594.093 408.765)" fill="#6c63ff"/><path d="M158.179,121.914V125h3.086v6.173h-3.086v3.086H165.9V121.914Z" transform="translate(439 185)" fill="#6c63ff"/><path d="M158.179,160.494v3.086h3.086v6.173h-3.086v3.087H165.9V160.494Z" transform="translate(439 185)" fill="#6c63ff"/><path d="M158.179,239.2v3.086h3.086v6.173h-3.086v3.086H165.9V239.2Z" transform="translate(439 185)" fill="#6c63ff"/><path d="M158.179,259.259v3.087h3.086v6.173h-3.086v3.086H165.9V259.259Z" transform="translate(439 185)" fill="#6c63ff"/><path d="M158.179,299.383v3.086h3.086v6.173h-3.086v3.086H165.9V299.383Z" transform="translate(439 185)" fill="#6c63ff"/><path d="M158.179,356.481v3.087h3.086v6.173h-3.086v3.086H165.9V356.481Z" transform="translate(439 185)" fill="#6c63ff"/><path d="M158.179,373.457v3.086h3.086v6.173h-3.086V385.8H165.9V373.457Z" transform="translate(439 185)" fill="#6c63ff"/></g></svg>